<svg width="150" height="26" viewBox="0 0 150 26" fill="none" xmlns="http://www.w3.org/2000/svg">
<path d="M3.1304 16.7682C1.44926 16.7103 0 18.1595 0 19.8986V23.087C1.68114 24.0145 3.76807 24.8261 6.08689 25V19.7827C6.14486 18.1015 4.81155 16.7682 3.1304 16.7682Z" fill="#CE375C"/>
<path d="M3.07243 15.2027C4.76929 15.2027 6.14486 13.8271 6.14486 12.1302C6.14486 10.4334 4.76929 9.0578 3.07243 9.0578C1.37558 9.0578 0 10.4334 0 12.1302C0 13.8271 1.37558 15.2027 3.07243 15.2027Z" fill="#CE375C"/>
<path d="M11.71 12.4201C10.0288 12.3621 8.57959 13.8114 8.57959 15.5505V24.9417C9.56509 24.8257 10.6086 24.5938 11.594 24.1881C12.5795 23.7823 13.623 23.2605 14.6665 22.5069V15.4345C14.7244 13.8114 13.3911 12.478 11.71 12.4201Z" fill="#E3B34C"/>
<path d="M11.652 10.9131C13.3489 10.9131 14.7245 9.53755 14.7245 7.84069C14.7245 6.14383 13.3489 4.76825 11.652 4.76825C9.95517 4.76825 8.57959 6.14383 8.57959 7.84069C8.57959 9.53755 9.95517 10.9131 11.652 10.9131Z" fill="#E3B34C"/>
<path d="M20.3477 8.65183C18.6665 8.59386 17.2173 10.0431 17.2173 11.7822V20.7676C17.3912 20.6517 17.5651 20.5357 17.739 20.4198C17.9709 20.2459 18.2028 20.13 18.4347 20.014C18.6665 19.8981 18.8984 19.7242 19.1303 19.6082C19.3622 19.4923 19.5941 19.3763 19.768 19.2604C19.9999 19.1445 20.1738 19.0285 20.4057 18.9126C20.4057 18.9126 20.4057 18.9126 20.4636 18.9126C20.6955 18.7966 20.8694 18.6807 21.1013 18.6227C21.1013 18.6227 21.1013 18.6227 21.1593 18.6227C21.3912 18.5068 21.5651 18.4488 21.7969 18.3329H21.8549C22.0288 18.2749 22.2607 18.159 22.4346 18.101H22.4926C22.6665 18.043 22.8984 17.9851 23.0723 17.8691H23.1303C23.1882 17.8691 23.2462 17.8691 23.2462 17.8111V11.7822C23.3042 10.0431 21.9709 8.7098 20.3477 8.65183Z" fill="#34A853"/>
<path d="M20.2897 7.14486C21.9866 7.14486 23.3621 5.7693 23.3621 4.07244C23.3621 2.37558 21.9866 1 20.2897 1C18.5929 1 17.2173 2.37558 17.2173 4.07244C17.2173 5.7693 18.5929 7.14486 20.2897 7.14486Z" fill="#34A853"/>
<path d="M28.9272 11.4926C27.246 11.4346 25.7968 12.8839 25.7968 14.623V17.1157C25.9127 17.1157 26.0866 17.0577 26.2025 17.0577C26.2605 17.0577 26.2605 17.0577 26.3185 17.0577C26.4924 17.0577 26.6663 16.9998 26.7822 16.9998C26.8402 16.9998 26.8402 16.9998 26.8982 16.9998C27.0721 16.9998 27.188 16.9998 27.362 16.9998C27.4199 16.9998 27.4779 16.9998 27.4779 16.9998C27.6518 16.9998 27.7677 16.9998 27.9417 16.9998C27.9996 16.9998 28.0576 16.9998 28.1156 16.9998C28.2895 16.9998 28.4054 16.9998 28.5214 16.9998C28.5793 16.9998 28.6373 16.9998 28.6953 16.9998C28.8112 16.9998 28.9851 16.9998 29.1011 17.0577C29.159 17.0577 29.217 17.0577 29.275 17.0577C29.3909 17.0577 29.5648 17.1157 29.6808 17.1157C29.7387 17.1157 29.7967 17.1157 29.8547 17.1737C29.9706 17.1737 30.0866 17.2316 30.2605 17.2316C30.3184 17.2316 30.3764 17.2896 30.4344 17.2896C30.5503 17.3476 30.6663 17.3476 30.7822 17.4056C30.8402 17.4056 30.8981 17.4635 30.9561 17.4635C31.0721 17.5215 31.188 17.5215 31.3039 17.5795C31.4778 17.6374 31.6518 17.6954 31.8257 17.8114V14.565C31.9416 12.8839 30.6083 11.5506 28.9272 11.4926Z" fill="#64C3EB"/>
<path d="M28.8692 9.98519C30.566 9.98519 31.9416 8.60963 31.9416 6.91277C31.9416 5.21592 30.566 3.84033 28.8692 3.84033C27.1723 3.84033 25.7968 5.21592 25.7968 6.91277C25.7968 8.60963 27.1723 9.98519 28.8692 9.98519Z" fill="#64C3EB"/>
<path d="M46.2617 20.66C45.155 20.66 44.1417 20.5133 43.2217 20.22C42.315 19.9267 41.5283 19.4867 40.8617 18.9L41.6017 17.38C42.295 17.94 43.015 18.3467 43.7617 18.6C44.5083 18.8533 45.3483 18.98 46.2817 18.98C47.3483 18.98 48.175 18.78 48.7617 18.38C49.3483 17.98 49.6417 17.4133 49.6417 16.68C49.6417 16.0667 49.3683 15.6067 48.8217 15.3C48.275 14.98 47.4083 14.6867 46.2217 14.42C45.0883 14.18 44.1617 13.9067 43.4417 13.6C42.7217 13.28 42.155 12.86 41.7417 12.34C41.3283 11.8067 41.1217 11.1267 41.1217 10.3C41.1217 9.47333 41.3417 8.74667 41.7817 8.12C42.2217 7.48 42.8417 6.98667 43.6417 6.64C44.455 6.28 45.3883 6.1 46.4417 6.1C47.4417 6.1 48.375 6.25333 49.2417 6.56C50.1217 6.86667 50.855 7.3 51.4417 7.86L50.7017 9.38C50.0483 8.83333 49.375 8.43333 48.6817 8.18C47.9883 7.91333 47.2483 7.78 46.4617 7.78C45.435 7.78 44.6283 8 44.0417 8.44C43.455 8.86667 43.1617 9.45333 43.1617 10.2C43.1617 10.84 43.415 11.3267 43.9217 11.66C44.4417 11.9933 45.2683 12.2933 46.4017 12.56C47.5883 12.8267 48.5483 13.1067 49.2817 13.4C50.015 13.6933 50.6017 14.0933 51.0417 14.6C51.4817 15.1067 51.7017 15.76 51.7017 16.56C51.7017 17.3867 51.4817 18.1067 51.0417 18.72C50.6017 19.3333 49.9683 19.8133 49.1417 20.16C48.3283 20.4933 47.3683 20.66 46.2617 20.66ZM62.8379 10.42V20.5H60.8779V18.82C60.5579 19.4067 60.1179 19.86 59.5579 20.18C58.9979 20.4867 58.3646 20.64 57.6579 20.64C55.2312 20.64 54.0179 19.2933 54.0179 16.6V10.42H56.0179V16.58C56.0179 17.4067 56.1846 18.02 56.5179 18.42C56.8646 18.8067 57.3846 19 58.0779 19C58.9046 19 59.5646 18.7333 60.0579 18.2C60.5646 17.6667 60.8179 16.96 60.8179 16.08V10.42H62.8379ZM70.8167 10.18C71.1233 10.18 71.4433 10.2267 71.7767 10.32L71.7367 12.16C71.3767 12.0267 70.9833 11.96 70.5567 11.96C69.6367 11.96 68.9433 12.24 68.4767 12.8C68.0233 13.3467 67.7967 14.04 67.7967 14.88V20.5H65.7967V13.26C65.7967 12.2067 65.7433 11.26 65.6367 10.42H67.5167L67.6967 12.24C67.9633 11.5733 68.3767 11.0667 68.9367 10.72C69.4967 10.36 70.1233 10.18 70.8167 10.18ZM83.0817 10.44L78.7017 20.5H76.8817L72.5417 10.44H74.6817L77.8417 18.22L81.0617 10.44H83.0817ZM93.1076 15.5H85.9076C85.9743 17.86 87.0476 19.04 89.1276 19.04C90.2876 19.04 91.3476 18.66 92.3076 17.9L92.9276 19.34C92.4743 19.74 91.8943 20.06 91.1876 20.3C90.4943 20.5267 89.7943 20.64 89.0876 20.64C87.4743 20.64 86.2076 20.18 85.2876 19.26C84.3676 18.3267 83.9076 17.0533 83.9076 15.44C83.9076 14.4133 84.1076 13.5 84.5076 12.7C84.9209 11.9 85.4943 11.28 86.2276 10.84C86.9609 10.4 87.7943 10.18 88.7276 10.18C90.0876 10.18 91.1543 10.62 91.9276 11.5C92.7143 12.38 93.1076 13.6 93.1076 15.16V15.5ZM88.7676 11.68C88.0076 11.68 87.3876 11.9067 86.9076 12.36C86.4276 12.8133 86.1209 13.46 85.9876 14.3H91.3276C91.2476 13.4467 90.9876 12.8 90.5476 12.36C90.1076 11.9067 89.5143 11.68 88.7676 11.68ZM104.449 10.42L99.7488 21.32C99.2288 22.5067 98.5755 23.3733 97.7888 23.92C97.0155 24.48 96.0555 24.8533 94.9088 25.04L94.4688 23.48C95.4155 23.2667 96.1288 22.9867 96.6088 22.64C97.1022 22.3067 97.4955 21.8 97.7888 21.12L98.1488 20.28L93.9088 10.42H96.0488L99.2088 18.22L102.429 10.42H104.449ZM106.191 6.26H108.251V18.78H115.171V20.5H106.191V6.26ZM126.228 10.42V20.5H124.228V18.78C123.934 19.38 123.494 19.84 122.908 20.16C122.334 20.48 121.661 20.64 120.888 20.64C119.994 20.64 119.208 20.4267 118.528 20C117.861 19.5733 117.341 18.9733 116.968 18.2C116.594 17.4133 116.408 16.5 116.408 15.46C116.408 14.42 116.594 13.5 116.968 12.7C117.354 11.9 117.888 11.28 118.568 10.84C119.248 10.4 120.021 10.18 120.888 10.18C121.661 10.18 122.334 10.3467 122.908 10.68C123.481 11 123.921 11.46 124.228 12.06V10.42H126.228ZM121.368 19.04C122.274 19.04 122.974 18.7267 123.468 18.1C123.974 17.46 124.228 16.5667 124.228 15.42C124.228 14.26 123.974 13.3667 123.468 12.74C122.974 12.1133 122.268 11.8 121.348 11.8C120.441 11.8 119.728 12.1267 119.208 12.78C118.701 13.42 118.448 14.3133 118.448 15.46C118.448 16.5933 118.701 17.4733 119.208 18.1C119.728 18.7267 120.448 19.04 121.368 19.04ZM136.015 20.5L131.195 15.74V20.5H129.195V5.78H131.195V14.98L135.675 10.44H138.175L133.355 15.28L138.595 20.5H136.015ZM148.264 15.5H141.064C141.131 17.86 142.204 19.04 144.284 19.04C145.444 19.04 146.504 18.66 147.464 17.9L148.084 19.34C147.631 19.74 147.051 20.06 146.344 20.3C145.651 20.5267 144.951 20.64 144.244 20.64C142.631 20.64 141.364 20.18 140.444 19.26C139.524 18.3267 139.064 17.0533 139.064 15.44C139.064 14.4133 139.264 13.5 139.664 12.7C140.077 11.9 140.651 11.28 141.384 10.84C142.117 10.4 142.951 10.18 143.884 10.18C145.244 10.18 146.311 10.62 147.084 11.5C147.871 12.38 148.264 13.6 148.264 15.16V15.5ZM143.924 11.68C143.164 11.68 142.544 11.9067 142.064 12.36C141.584 12.8133 141.277 13.46 141.144 14.3H146.484C146.404 13.4467 146.144 12.8 145.704 12.36C145.264 11.9067 144.671 11.68 143.924 11.68Z" fill="#222222"/>
</svg>
